<svg xmlns="http://www.w3.org/2000/svg" width="33" height="33" viewBox="0 0 33 33"><g fill="none" fill-rule="evenodd"><path stroke="#000" stroke-linejoin="round" stroke-width=".866" d="M14.378 22.331h17.971V.565H14.378z"/><path stroke="#000" stroke-linecap="round" stroke-linejoin="round" stroke-width=".866" d="M17.85 17.02h11.02m-11.01-5.46h11.02M17.86 5.85h11.02M2.73 10.47c0-3.3 2.68-5.97 5.97-5.97h2.52"/><path stroke="#000" stroke-linecap="round" stroke-linejoin="round" stroke-width=".866" d="M9.217 2.494l2.001 2.001-2.001 2.002"/><path stroke="#000" stroke-linecap="round" stroke-width=".866" d="M14.38 16.9c-.56-.3-1.2-.48-1.87-.48H4.58A3.94 3.94 0 0 0 .63 20.4v3.89a3.96 3.96 0 0 0 3.95 3.96h1.8l2.33 4.04"/><path stroke="#000" stroke-linecap="round" stroke-width=".866" d="M9.2 28.24h3.31a3.99 3.99 0 0 0 3.98-3.96v-1.95"/><path fill="#000" fill-rule="nonzero" d="M12.2 21.42a.77.77 0 1 1 0 1.54.77.77 0 0 1 0-1.54zm-3.5 0a.77.77 0 1 1 0 1.54.77.77 0 0 1 0-1.54zm-3.49 0a.77.77 0 1 1 0 1.53.77.77 0 0 1 0-1.53z"/></g></svg>