<?xml version="1.0" ?><svg data-name="Layer 1" id="Layer_1" viewBox="0 0 100 100" xmlns="http://www.w3.org/2000/svg"><title/><path d="M28,89.73a3.86,3.86,0,0,1-.94-.5A6.5,6.5,0,0,0,28,89.73Z"/><path d="M25.5,75.86v0h0A0,0,0,0,1,25.5,75.86Z"/><polygon points="30.65 75.88 30.5 75.88 30.5 75.73 30.65 75.88"/><path d="M25.5,75.86v0h0A0,0,0,0,1,25.5,75.86Z"/><path d="M25.5,75.86v0h0A0,0,0,0,1,25.5,75.86Z"/><polygon points="30.65 75.88 30.5 75.88 30.5 75.73 30.65 75.88"/><path d="M25.49,75.88h0v0A0,0,0,0,0,25.49,75.88Z"/><path d="M80.25,49.39V30L76.5,28V17.18A7.56,7.56,0,0,0,69,9.62H31a7.56,7.56,0,0,0-7.55,7.56V28l-3.75,2V49.39l3.75,1V57l-3.75,2V78.39l3.75,1v3.43a7.54,7.54,0,0,0,3.4,6.29l.17.12a6.5,6.5,0,0,0,.94.5,7.37,7.37,0,0,0,3,.65H69a7.56,7.56,0,0,0,7.55-7.56V79.39l3.75-1V59L76.5,57V50.39ZM76.5,30.29l1.75.93v5.4H76.5Zm0,8.33h1.75v9.24l-1.75.46Zm-53,38.7-1.75-.46V67.62H23.5Zm0-11.7H21.75v-5.4l1.75-.93Zm0-17.3-1.75-.46V38.62H23.5Zm0-11.7H21.75v-5.4l1.75-.93Zm40.5-25h2V32.4H64Zm0,23.23h2a.78.78,0,1,1,0,1.55H64a.78.78,0,1,1,0-1.55Zm2,4V52.38H64V38.85Zm-28-.7a3.22,3.22,0,0,0,0-5V11.62H62V33.1a3.22,3.22,0,0,0,0,5V52.38H38ZM34,11.62h2V32.4H34Zm0,23.23h2a.78.78,0,1,1,0,1.55H34a.78.78,0,1,1,0-1.55Zm2,4V52.38H34V38.85ZM32,33.1a3.22,3.22,0,0,0,0,5V52.38H30.5v21.5h-5V17.18A5.57,5.57,0,0,1,31,11.62h1ZM67.5,81.38h-35V60.88h1.75v2.74h2V60.88H67.5Zm7-7.5h-5V52.38H68V38.15a3.22,3.22,0,0,0,0-5V11.62h1a5.57,5.57,0,0,1,5.55,5.56Zm3.75,3-1.75.46v-9.7h1.75Zm0-16.64v5.4H76.5V59.29Z"/><path d="M57,31.42l-6-6a1.48,1.48,0,0,0-2.08,0l-6,6a1.48,1.48,0,0,0,0,2.08l6,6a1.48,1.48,0,0,0,2.08,0l6-6A1.48,1.48,0,0,0,57,31.42Zm-8,3a1,1,0,0,1-2,0v-3a1,1,0,1,1,2,0Zm4,0a1,1,0,0,1-2,0v-3a1,1,0,1,1,2,0Z"/><path d="M65.5,79.38h-9v-7h9Zm-7-2h5v-3h-5Z"/></svg>